name C:/MyDriveSym/Projects/mobilecap/Data\Session20210816_0002\mocap\ForceDataProcessed\walkingTS3_forces.mot
datacolumns 19
datarows 17
range 0.00000000 0.00800000
endheader 
time	R_ground_force_vx	R_ground_force_vy	R_ground_force_vz	R_ground_force_px	R_ground_force_py	R_ground_force_pz	R_ground_torque_x	R_ground_torque_y	R_ground_torque_z	L_ground_force_vx	L_ground_force_vy	L_ground_force_vz	L_ground_force_px	L_ground_force_py	L_ground_force_pz	L_ground_torque_x	L_ground_torque_y	L_ground_torque_z	
          0.00000000	        -77.04968400	        413.86203900	         15.70357300	          0.13788000	          0.00600000	         -0.20821000	          0.00000000	         -0.29158700	          0.00000000	          0.00000000	          0.00000000	          0.00000000	          0.71707600	          0.00000000	         -0.27588500	          0.00000000	          0.00000000	          0.00000000	
          0.00050000	        -77.18949200	        414.72115700	         15.61772000	          0.13788000	          0.00600000	         -0.20821000	          0.00000000	         -0.29622300	          0.00000000	          0.00000000	          0.00000000	          0.00000000	          0.71707600	          0.00000000	         -0.27588500	          0.00000000	          0.00000000	          0.00000000	
          0.00100000	        -77.32957300	        415.58474500	         15.53109700	          0.13788000	          0.00600000	         -0.20821000	          0.00000000	         -0.30084600	          0.00000000	          0.00000000	          0.00000000	          0.00000000	          0.71707600	          0.00000000	         -0.27588500	          0.00000000	          0.00000000	          0.00000000	
          0.00150000	        -77.46991200	        416.45274600	         15.44370500	          0.13788000	          0.00600000	         -0.20821000	          0.00000000	         -0.30545300	          0.00000000	          0.00000000	          0.00000000	          0.00000000	          0.71707600	          0.00000000	         -0.27588500	          0.00000000	          0.00000000	          0.00000000	
          0.00200000	        -77.61049000	        417.32510300	         15.35554300	          0.13800600	          0.00600000	         -0.20817300	          0.00000000	         -0.31004400	          0.00000000	          0.00000000	          0.00000000	          0.00000000	          0.71707600	          0.00000000	         -0.27588500	          0.00000000	          0.00000000	          0.00000000	
          0.00250000	        -77.75129000	        418.20175800	         15.26661200	          0.13813200	          0.00600000	         -0.20813500	          0.00000000	         -0.31461800	          0.00000000	          0.00000000	          0.00000000	          0.00000000	          0.71707600	          0.00000000	         -0.27588500	          0.00000000	          0.00000000	          0.00000000	
          0.00300000	        -77.89229400	        419.08265100	         15.17691400	          0.13825900	          0.00600000	         -0.20809800	          0.00000000	         -0.31917300	          0.00000000	          0.00000000	          0.00000000	          0.00000000	          0.71707600	          0.00000000	         -0.27588500	          0.00000000	          0.00000000	          0.00000000	
          0.00350000	        -78.03348400	        419.96772100	         15.08644800	          0.13838700	          0.00600000	         -0.20806000	          0.00000000	         -0.32371000	          0.00000000	          0.00000000	          0.00000000	          0.00000000	          0.71707600	          0.00000000	         -0.27588500	          0.00000000	          0.00000000	          0.00000000	
          0.00400000	        -78.17484300	        420.85690700	         14.99521600	          0.13851600	          0.00600000	         -0.20802200	          0.00000000	         -0.32822500	          0.00000000	          0.00000000	          0.00000000	          0.00000000	          0.71707600	          0.00000000	         -0.27588500	          0.00000000	          0.00000000	          0.00000000	
          0.00450000	        -78.31635100	        421.75014600	         14.90321900	          0.13864500	          0.00600000	         -0.20798300	          0.00000000	         -0.33271900	          0.00000000	          0.00000000	          0.00000000	          0.00000000	          0.71707600	          0.00000000	         -0.27588500	          0.00000000	          0.00000000	          0.00000000	
          0.00500000	        -78.45799100	        422.64737300	         14.81045900	          0.13877500	          0.00600000	         -0.20794400	          0.00000000	         -0.33719100	          0.00000000	          0.00000000	          0.00000000	          0.00000000	          0.71707600	          0.00000000	         -0.27588500	          0.00000000	          0.00000000	          0.00000000	
          0.00550000	        -78.59974200	        423.54852400	         14.71693800	          0.13890500	          0.00600000	         -0.20790500	          0.00000000	         -0.34163800	          0.00000000	          0.00000000	          0.00000000	          0.00000000	          0.71707600	          0.00000000	         -0.27588500	          0.00000000	          0.00000000	          0.00000000	
          0.00600000	        -78.74158800	        424.45353100	         14.62265600	          0.13903600	          0.00600000	         -0.20786600	          0.00000000	         -0.34606100	          0.00000000	          0.00000000	          0.00000000	          0.00000000	          0.71707600	          0.00000000	         -0.27588500	          0.00000000	          0.00000000	          0.00000000	
          0.00650000	        -78.88350700	        425.36232900	         14.52761700	          0.13916800	          0.00600000	         -0.20782700	          0.00000000	         -0.35045700	          0.00000000	          0.00000000	          0.00000000	          0.00000000	          0.71707600	          0.00000000	         -0.27588500	          0.00000000	          0.00000000	          0.00000000	
          0.00700000	        -79.02548200	        426.27484900	         14.43182300	          0.13930100	          0.00600000	         -0.20778700	          0.00000000	         -0.35482600	          0.00000000	          0.00000000	          0.00000000	          0.00000000	          0.71707600	          0.00000000	         -0.27588500	          0.00000000	          0.00000000	          0.00000000	
          0.00750000	        -79.16749200	        427.19102100	         14.33527600	          0.13943400	          0.00600000	         -0.20774700	          0.00000000	         -0.35916700	          0.00000000	          0.00000000	          0.00000000	          0.00000000	          0.71707600	          0.00000000	         -0.27588500	          0.00000000	          0.00000000	          0.00000000	
          0.00800000	        -79.30951800	        428.11077700	         14.23798000	          0.13956700	          0.00600000	         -0.20770700	          0.00000000	         -0.36347800	          0.00000000	          0.00000000	          0.00000000	          0.00000000	          0.71707600	          0.00000000	         -0.27588500	          0.00000000	          0.00000000	          0.00000000	
